<svg width="152" height="152" fill="none" xmlns="http://www.w3.org/2000/svg"><path fill="#EE3643" d="M0 0h152v152H0z"/><path fill-rule="evenodd" clip-rule="evenodd" d="M35.9 35c-2.67 0-2.9 2.81-2.9 2.81v21.27c0 4.05 4 3.92 4 3.92h12.37c2.66 0 2.2 2.06 2.2 2.06S48.19 82.97 47.83 86a8.57 8.57 0 0 1-2.57 4.96s-2.94 1.66-4.13 2.3c-1.2.64-1.2 3.74-1.2 3.74H83v-1.72c0-2.02-9.5-4.32-13.08-4.68-3.58-.37-2.84-2.76-2.84-2.76l1.47-10.75h4.12l1.56-10.84H70.1l.46-3.25H82.4c7.98-.83 13.6-6.3 13.6-6.3V40.16C89.67 35.66 79.74 35 79.74 35H35.89Zm79.64 10h18.55c.79 0 1.91 1.67 1.91 3.5s-1.12 3.5-1.91 3.5h-18.55c-.85 3.05-2.85 5-5.17 5H100V40h10.37c2.32 0 4.32 1.95 5.17 5ZM42.6 119c-2.6 0-2.6-2.82-2.6-2.82v-15.16h43v15.25c0 2.48-2.79 2.73-2.79 2.73H42.6ZM82 42.52v-.04c0-.82-.62-1.48-1.38-1.48H39.38c-.76 0-1.38.66-1.38 1.48v.04c0 .82.62 1.48 1.38 1.48h41.24c.76 0 1.38-.66 1.38-1.48Z" fill="#fff"/></svg>